<?xml version="1.0" encoding="UTF-8" standalone="no"?>
<!DOCTYPE svg PUBLIC "-//W3C//DTD SVG 1.1//EN" "http://www.w3.org/Graphics/SVG/1.1/DTD/svg11.dtd">
<svg version="1.1" xmlns="http://www.w3.org/2000/svg" xmlns:xlink="http://www.w3.org/1999/xlink" preserveAspectRatio="xMidYMid meet" viewBox="0 0 640 640" width="640" height="640"><defs><path d="M55 200C46.75 200 40 193.25 40 185C40 180.5 40 144.5 40 140C40 106.88 66.88 80 100 80C104 80 124 80 160 80C160 41 160 19.33 160 15C160 6.75 166.75 0 175 0C180 0 220 0 225 0C233.25 0 240 6.75 240 15C240 19.33 240 41 240 80L400 80C400 41 400 19.33 400 15C400 6.75 406.75 0 415 0C420 0 460 0 465 0C473.25 0 480 6.75 480 15C480 19.33 480 41 480 80C516 80 536 80 540 80C573.13 80 600 106.88 600 140C600 144.5 600 180.5 600 185C600 193.25 593.25 200 585 200C479 200 108 200 55 200ZM585 240C593.25 240 600 246.75 600 255C600 287.5 600 547.5 600 580C600 613.13 573.13 640 540 640C496 640 144 640 100 640C66.88 640 40 613.13 40 580C40 547.5 40 287.5 40 255C40 246.75 46.75 240 55 240C161 240 532 240 585 240ZM436.75 379.88C442.63 374 442.63 364.5 436.75 358.63C433.21 355.09 404.91 326.79 401.38 323.25C395.5 317.38 386 317.38 380.13 323.25C376.12 327.26 356.08 347.3 320 383.38C283.92 347.3 263.88 327.26 259.88 323.25C254 317.38 244.5 317.38 238.63 323.25C235.09 326.79 206.79 355.09 203.25 358.63C197.38 364.5 197.38 374 203.25 379.88C207.26 383.88 227.3 403.92 263.38 440C227.3 476.07 207.26 496.12 203.25 500.13C197.38 506 197.38 515.5 203.25 521.38C206.79 524.91 235.09 553.21 238.63 556.75C244.5 562.63 254 562.63 259.88 556.75C263.88 552.74 283.92 532.7 320 496.63C356.08 532.7 376.12 552.74 380.13 556.75C386 562.63 395.5 562.63 401.38 556.75C404.91 553.21 433.21 524.91 436.75 521.38C442.63 515.5 442.63 506 436.75 500.13C432.74 496.12 412.7 476.07 376.63 440C412.7 403.92 432.74 383.88 436.75 379.88Z" id="d1GqQu3RKA"></path></defs><g><g><g><use xlink:href="#d1GqQu3RKA" opacity="1" fill="#ffffff" fill-opacity="1"></use><g><use xlink:href="#d1GqQu3RKA" opacity="1" fill-opacity="0" stroke="#000000" stroke-width="1" stroke-opacity="0"></use></g></g></g></g></svg>