<?xml version="1.0" encoding="UTF-8" standalone="no"?>
<!DOCTYPE svg PUBLIC "-//W3C//DTD SVG 1.1//EN" "http://www.w3.org/Graphics/SVG/1.1/DTD/svg11.dtd">
<svg version="1.1" xmlns="http://www.w3.org/2000/svg" xmlns:xlink="http://www.w3.org/1999/xlink" preserveAspectRatio="xMidYMid meet" viewBox="0 0 640 640" width="640" height="640"><defs><path d="M180 0C146.86 0 120 26.86 120 60C120 64 120 84 120 120C84 120 64 120 60 120C26.86 120 0 146.86 0 180C0 220 0 540 0 580C0 613.14 26.86 640 60 640C100 640 420 640 460 640C493.14 640 520 613.14 520 580C520 576 520 556 520 520C556 520 576 520 580 520C613.14 520 640 493.14 640 460C640 420 640 100 640 60C640 26.86 613.14 0 580 0C500 0 220 0 180 0ZM67.5 580C63.36 580 60 576.64 60 572.5C60 534 60 226 60 187.5C60 183.36 63.36 180 67.5 180C71 180 88.5 180 120 180C120 348 120 441.33 120 460C120 493.14 146.86 520 180 520C198.67 520 292 520 460 520C460 551.5 460 569 460 572.5C460 576.64 456.64 580 452.5 580C375.5 580 106 580 67.5 580ZM187.5 460C183.36 460 180 456.64 180 452.5C180 414 180 106 180 67.5C180 63.36 183.36 60 187.5 60C226 60 534 60 572.5 60C576.64 60 580 63.36 580 67.5C580 106 580 414 580 452.5C580 456.64 576.64 460 572.5 460C495.5 460 226 460 187.5 460Z" id="a16Y34sucP"></path></defs><g><g><g><use xlink:href="#a16Y34sucP" opacity="1" fill="#ffffff" fill-opacity="1"></use><g><use xlink:href="#a16Y34sucP" opacity="1" fill-opacity="0" stroke="#000000" stroke-width="1" stroke-opacity="0"></use></g></g></g></g></svg>