<svg xmlns="http://www.w3.org/2000/svg" width="16.971" height="16.971" viewBox="0 0 16.971 16.971">
  <path id="Icon_awesome-band-aid" data-name="Icon awesome-band-aid" d="M0,8.35v4.8a1.6,1.6,0,0,0,1.6,1.6H4v-8H1.6A1.6,1.6,0,0,0,0,8.35Zm14.4-1.6H12v8h2.4a1.6,1.6,0,0,0,1.6-1.6V8.35A1.6,1.6,0,0,0,14.4,6.75Zm-9.6,8h6.4v-8H4.8Zm4.4-5.8a.6.6,0,1,1-.6.6A.6.6,0,0,1,9.2,8.95Zm0,2.4a.6.6,0,1,1-.6.6A.6.6,0,0,1,9.2,11.35ZM6.8,8.95a.6.6,0,1,1-.6.6A.6.6,0,0,1,6.8,8.95Zm0,2.4a.6.6,0,1,1-.6.6A.6.6,0,0,1,6.8,11.35Z" transform="translate(10.43 -4.773) rotate(45)" fill="#fff"/>
</svg>
