<svg xmlns="http://www.w3.org/2000/svg" width="17.067" height="16" viewBox="0 0 17.067 16">
  <path id="Icon_awesome-briefcase-medical" data-name="Icon awesome-briefcase-medical" d="M15.467,5.45H12.8V3.85a1.6,1.6,0,0,0-1.6-1.6H5.867a1.6,1.6,0,0,0-1.6,1.6v1.6H1.6A1.6,1.6,0,0,0,0,7.05v9.6a1.6,1.6,0,0,0,1.6,1.6H15.467a1.6,1.6,0,0,0,1.6-1.6V7.05A1.6,1.6,0,0,0,15.467,5.45ZM6.4,4.383h4.267V5.45H6.4Zm5.333,8.267a.267.267,0,0,1-.267.267H9.6v1.867a.267.267,0,0,1-.267.267h-1.6a.267.267,0,0,1-.267-.267V12.917H5.6a.267.267,0,0,1-.267-.267v-1.6a.267.267,0,0,1,.267-.267H7.467V8.917a.267.267,0,0,1,.267-.267h1.6a.267.267,0,0,1,.267.267v1.867h1.867a.267.267,0,0,1,.267.267Z" transform="translate(0 -2.25)" fill="#fff"/>
</svg>
